# Tiled2Unity generated file. Do not modify by hand.
# Wavefront file for 'TestMap01_mesh_0002.obj'

# Vertices (Count = 464)
v 0 -1 0
v -1 -1 0
v -1 0 0
v 0 0 0
v -1 -1 0
v -2 -1 0
v -2 0 0
v -1 0 0
v -5 -1 0
v -6 -1 0
v -6 0 0
v -5 0 0
v -6 -1 0
v -7 -1 0
v -7 0 0
v -6 0 0
v -7 -1 0
v -8 -1 0
v -8 0 0
v -7 0 0
v -10 -1 0
v -11 -1 0
v -11 0 0
v -10 0 0
v -11 -1 0
v -12 -1 0
v -12 0 0
v -11 0 0
v -12 -1 0
v -13 -1 0
v -13 0 0
v -12 0 0
v -14 -1 0
v -15 -1 0
v -15 0 0
v -14 0 0
v -15 -1 0
v -16 -1 0
v -16 0 0
v -15 0 0
v -16 -1 0
v -17 -1 0
v -17 0 0
v -16 0 0
v 0 -2 0
v -1 -2 0
v -1 -1 0
v 0 -1 0
v -1 -2 0
v -2 -2 0
v -2 -1 0
v -1 -1 0
v -2 -2 0
v -3 -2 0
v -3 -1 0
v -2 -1 0
v -3 -2 0
v -4 -2 0
v -4 -1 0
v -3 -1 0
v -4 -2 0
v -5 -2 0
v -5 -1 0
v -4 -1 0
v -5 -2 0
v -6 -2 0
v -6 -1 0
v -5 -1 0
v -6 -2 0
v -7 -2 0
v -7 -1 0
v -6 -1 0
v -7 -2 0
v -8 -2 0
v -8 -1 0
v -7 -1 0
v -10 -2 0
v -11 -2 0
v -11 -1 0
v -10 -1 0
v -11 -2 0
v -12 -2 0
v -12 -1 0
v -11 -1 0
v -12 -2 0
v -13 -2 0
v -13 -1 0
v -12 -1 0
v -14 -2 0
v -15 -2 0
v -15 -1 0
v -14 -1 0
v -15 -2 0
v -16 -2 0
v -16 -1 0
v -15 -1 0
v -16 -2 0
v -17 -2 0
v -17 -1 0
v -16 -1 0
v 0 -3 0
v -1 -3 0
v -1 -2 0
v 0 -2 0
v -1 -3 0
v -2 -3 0
v -2 -2 0
v -1 -2 0
v -2 -3 0
v -3 -3 0
v -3 -2 0
v -2 -2 0
v -3 -3 0
v -4 -3 0
v -4 -2 0
v -3 -2 0
v -4 -3 0
v -5 -3 0
v -5 -2 0
v -4 -2 0
v -5 -3 0
v -6 -3 0
v -6 -2 0
v -5 -2 0
v -6 -3 0
v -7 -3 0
v -7 -2 0
v -6 -2 0
v -7 -3 0
v -8 -3 0
v -8 -2 0
v -7 -2 0
v -10 -3 0
v -11 -3 0
v -11 -2 0
v -10 -2 0
v -11 -3 0
v -12 -3 0
v -12 -2 0
v -11 -2 0
v -12 -3 0
v -13 -3 0
v -13 -2 0
v -12 -2 0
v -14 -3 0
v -15 -3 0
v -15 -2 0
v -14 -2 0
v -15 -3 0
v -16 -3 0
v -16 -2 0
v -15 -2 0
v -16 -3 0
v -17 -3 0
v -17 -2 0
v -16 -2 0
v -2 -4 0
v -3 -4 0
v -3 -3 0
v -2 -3 0
v -3 -4 0
v -4 -4 0
v -4 -3 0
v -3 -3 0
v -4 -4 0
v -5 -4 0
v -5 -3 0
v -4 -3 0
v -10 -4 0
v -11 -4 0
v -11 -3 0
v -10 -3 0
v -11 -4 0
v -12 -4 0
v -12 -3 0
v -11 -3 0
v -12 -4 0
v -13 -4 0
v -13 -3 0
v -12 -3 0
v -2 -5 0
v -3 -5 0
v -3 -4 0
v -2 -4 0
v -3 -5 0
v -4 -5 0
v -4 -4 0
v -3 -4 0
v -4 -5 0
v -5 -5 0
v -5 -4 0
v -4 -4 0
v -5 -5 0
v -6 -5 0
v -6 -4 0
v -5 -4 0
v -6 -5 0
v -7 -5 0
v -7 -4 0
v -6 -4 0
v -7 -5 0
v -8 -5 0
v -8 -4 0
v -7 -4 0
v -15 -5 0
v -16 -5 0
v -16 -4 0
v -15 -4 0
v -16 -5 0
v -17 -5 0
v -17 -4 0
v -16 -4 0
v 0 -6 0
v -1 -6 0
v -1 -5 0
v 0 -5 0
v -1 -6 0
v -2 -6 0
v -2 -5 0
v -1 -5 0
v -2 -6 0
v -3 -6 0
v -3 -5 0
v -2 -5 0
v -5 -6 0
v -6 -6 0
v -6 -5 0
v -5 -5 0
v -6 -6 0
v -7 -6 0
v -7 -5 0
v -6 -5 0
v -7 -6 0
v -8 -6 0
v -8 -5 0
v -7 -5 0
v -11 -6 0
v -12 -6 0
v -12 -5 0
v -11 -5 0
v -12 -6 0
v -13 -6 0
v -13 -5 0
v -12 -5 0
v -13 -6 0
v -14 -6 0
v -14 -5 0
v -13 -5 0
v -15 -6 0
v -16 -6 0
v -16 -5 0
v -15 -5 0
v -16 -6 0
v -17 -6 0
v -17 -5 0
v -16 -5 0
v 0 -7 0
v -1 -7 0
v -1 -6 0
v 0 -6 0
v -1 -7 0
v -2 -7 0
v -2 -6 0
v -1 -6 0
v -2 -7 0
v -3 -7 0
v -3 -6 0
v -2 -6 0
v -5 -7 0
v -6 -7 0
v -6 -6 0
v -5 -6 0
v -6 -7 0
v -7 -7 0
v -7 -6 0
v -6 -6 0
v -7 -7 0
v -8 -7 0
v -8 -6 0
v -7 -6 0
v -11 -7 0
v -12 -7 0
v -12 -6 0
v -11 -6 0
v -12 -7 0
v -13 -7 0
v -13 -6 0
v -12 -6 0
v -13 -7 0
v -14 -7 0
v -14 -6 0
v -13 -6 0
v -15 -7 0
v -16 -7 0
v -16 -6 0
v -15 -6 0
v -16 -7 0
v -17 -7 0
v -17 -6 0
v -16 -6 0
v 0 -8 0
v -1 -8 0
v -1 -7 0
v 0 -7 0
v -1 -8 0
v -2 -8 0
v -2 -7 0
v -1 -7 0
v -2 -8 0
v -3 -8 0
v -3 -7 0
v -2 -7 0
v -5 -8 0
v -6 -8 0
v -6 -7 0
v -5 -7 0
v -6 -8 0
v -7 -8 0
v -7 -7 0
v -6 -7 0
v -7 -8 0
v -8 -8 0
v -8 -7 0
v -7 -7 0
v -11 -8 0
v -12 -8 0
v -12 -7 0
v -11 -7 0
v -12 -8 0
v -13 -8 0
v -13 -7 0
v -12 -7 0
v -13 -8 0
v -14 -8 0
v -14 -7 0
v -13 -7 0
v -15 -8 0
v -16 -8 0
v -16 -7 0
v -15 -7 0
v -16 -8 0
v -17 -8 0
v -17 -7 0
v -16 -7 0
v 0 -9 0
v -1 -9 0
v -1 -8 0
v 0 -8 0
v -1 -9 0
v -2 -9 0
v -2 -8 0
v -1 -8 0
v -2 -9 0
v -3 -9 0
v -3 -8 0
v -2 -8 0
v -3 -9 0
v -4 -9 0
v -4 -8 0
v -3 -8 0
v -4 -9 0
v -5 -9 0
v -5 -8 0
v -4 -8 0
v -5 -9 0
v -6 -9 0
v -6 -8 0
v -5 -8 0
v -11 -9 0
v -12 -9 0
v -12 -8 0
v -11 -8 0
v -12 -9 0
v -13 -9 0
v -13 -8 0
v -12 -8 0
v -13 -9 0
v -14 -9 0
v -14 -8 0
v -13 -8 0
v -3 -10 0
v -4 -10 0
v -4 -9 0
v -3 -9 0
v -4 -10 0
v -5 -10 0
v -5 -9 0
v -4 -9 0
v -5 -10 0
v -6 -10 0
v -6 -9 0
v -5 -9 0
v -12 -10 0
v -13 -10 0
v -13 -9 0
v -12 -9 0
v -13 -10 0
v -14 -10 0
v -14 -9 0
v -13 -9 0
v -14 -10 0
v -15 -10 0
v -15 -9 0
v -14 -9 0
v -3 -11 0
v -4 -11 0
v -4 -10 0
v -3 -10 0
v -4 -11 0
v -5 -11 0
v -5 -10 0
v -4 -10 0
v -5 -11 0
v -6 -11 0
v -6 -10 0
v -5 -10 0
v -12 -11 0
v -13 -11 0
v -13 -10 0
v -12 -10 0
v -13 -11 0
v -14 -11 0
v -14 -10 0
v -13 -10 0
v -14 -11 0
v -15 -11 0
v -15 -10 0
v -14 -10 0
v -3 -12 0
v -4 -12 0
v -4 -11 0
v -3 -11 0
v -4 -12 0
v -5 -12 0
v -5 -11 0
v -4 -11 0
v -5 -12 0
v -6 -12 0
v -6 -11 0
v -5 -11 0
v -12 -12 0
v -13 -12 0
v -13 -11 0
v -12 -11 0
v -13 -12 0
v -14 -12 0
v -14 -11 0
v -13 -11 0
v -14 -12 0
v -15 -12 0
v -15 -11 0
v -14 -11 0
v -12 -13 0
v -13 -13 0
v -13 -12 0
v -12 -12 0
v -13 -13 0
v -14 -13 0
v -14 -12 0
v -13 -12 0
v -14 -13 0
v -15 -13 0
v -15 -12 0
v -14 -12 0

# Texture cooridinates (Count = 20)
vt 0.0625 0.875
vt 0.125 0.875
vt 0.125 0.9375
vt 0.0625 0.9375
vt 0.1875 0.875
vt 0.1875 0.9375
vt 0 0.875
vt 0 0.9375
vt 0.0625 1
vt 0 1
vt 0.125 1
vt 0.1875 1
vt 0.0625 0.8125
vt 0.125 0.8125
vt 0.1875 0.8125
vt 0 0.8125
vt 0.0625 0.75
vt 0.125 0.75
vt 0.1875 0.75
vt 0 0.75

# Normal
vn 0 0 -1

# Mesh description
g TestMap01_mesh_0002

# Faces
f 1/1/1 2/2/1 3/3/1 4/4/1
f 5/2/1 6/5/1 7/6/1 8/3/1
f 9/7/1 10/1/1 11/4/1 12/8/1
f 13/1/1 14/2/1 15/3/1 16/4/1
f 17/2/1 18/5/1 19/6/1 20/3/1
f 21/8/1 22/4/1 23/9/1 24/10/1
f 25/4/1 26/3/1 27/11/1 28/9/1
f 29/3/1 30/6/1 31/12/1 32/11/1
f 33/7/1 34/1/1 35/4/1 36/8/1
f 37/1/1 38/2/1 39/3/1 40/4/1
f 41/2/1 42/5/1 43/6/1 44/3/1
f 45/13/1 46/14/1 47/2/1 48/1/1
f 49/14/1 50/15/1 51/5/1 52/2/1
f 53/8/1 54/4/1 55/9/1 56/10/1
f 57/4/1 58/3/1 59/11/1 60/9/1
f 61/3/1 62/6/1 63/12/1 64/11/1
f 65/16/1 66/13/1 67/1/1 68/7/1
f 69/13/1 70/14/1 71/2/1 72/1/1
f 73/14/1 74/15/1 75/5/1 76/2/1
f 77/7/1 78/1/1 79/4/1 80/8/1
f 81/1/1 82/2/1 83/3/1 84/4/1
f 85/2/1 86/5/1 87/6/1 88/3/1
f 89/16/1 90/13/1 91/1/1 92/7/1
f 93/13/1 94/14/1 95/2/1 96/1/1
f 97/14/1 98/15/1 99/5/1 100/2/1
f 101/17/1 102/18/1 103/14/1 104/13/1
f 105/18/1 106/19/1 107/15/1 108/14/1
f 109/7/1 110/1/1 111/4/1 112/8/1
f 113/1/1 114/2/1 115/3/1 116/4/1
f 117/2/1 118/5/1 119/6/1 120/3/1
f 121/20/1 122/17/1 123/13/1 124/16/1
f 125/17/1 126/18/1 127/14/1 128/13/1
f 129/18/1 130/19/1 131/15/1 132/14/1
f 133/16/1 134/13/1 135/1/1 136/7/1
f 137/13/1 138/14/1 139/2/1 140/1/1
f 141/14/1 142/15/1 143/5/1 144/2/1
f 145/20/1 146/17/1 147/13/1 148/16/1
f 149/17/1 150/18/1 151/14/1 152/13/1
f 153/18/1 154/19/1 155/15/1 156/14/1
f 157/16/1 158/13/1 159/1/1 160/7/1
f 161/13/1 162/14/1 163/2/1 164/1/1
f 165/14/1 166/15/1 167/5/1 168/2/1
f 169/20/1 170/17/1 171/13/1 172/16/1
f 173/17/1 174/18/1 175/14/1 176/13/1
f 177/18/1 178/19/1 179/15/1 180/14/1
f 181/20/1 182/17/1 183/13/1 184/16/1
f 185/17/1 186/18/1 187/14/1 188/13/1
f 189/18/1 190/19/1 191/15/1 192/14/1
f 193/8/1 194/4/1 195/9/1 196/10/1
f 197/4/1 198/3/1 199/11/1 200/9/1
f 201/3/1 202/6/1 203/12/1 204/11/1
f 205/8/1 206/4/1 207/9/1 208/10/1
f 209/4/1 210/3/1 211/11/1 212/9/1
f 213/8/1 214/4/1 215/9/1 216/10/1
f 217/4/1 218/3/1 219/11/1 220/9/1
f 221/3/1 222/6/1 223/12/1 224/11/1
f 225/7/1 226/1/1 227/4/1 228/8/1
f 229/1/1 230/2/1 231/3/1 232/4/1
f 233/2/1 234/5/1 235/6/1 236/3/1
f 237/8/1 238/4/1 239/9/1 240/10/1
f 241/4/1 242/3/1 243/11/1 244/9/1
f 245/3/1 246/6/1 247/12/1 248/11/1
f 249/7/1 250/1/1 251/4/1 252/8/1
f 253/1/1 254/2/1 255/3/1 256/4/1
f 257/7/1 258/1/1 259/4/1 260/8/1
f 261/1/1 262/2/1 263/3/1 264/4/1
f 265/2/1 266/5/1 267/6/1 268/3/1
f 269/16/1 270/13/1 271/1/1 272/7/1
f 273/13/1 274/14/1 275/2/1 276/1/1
f 277/14/1 278/15/1 279/5/1 280/2/1
f 281/7/1 282/1/1 283/4/1 284/8/1
f 285/1/1 286/2/1 287/3/1 288/4/1
f 289/2/1 290/5/1 291/6/1 292/3/1
f 293/16/1 294/13/1 295/1/1 296/7/1
f 297/13/1 298/14/1 299/2/1 300/1/1
f 301/16/1 302/13/1 303/1/1 304/7/1
f 305/13/1 306/14/1 307/2/1 308/1/1
f 309/14/1 310/15/1 311/5/1 312/2/1
f 313/20/1 314/17/1 315/13/1 316/16/1
f 317/17/1 318/18/1 319/14/1 320/13/1
f 321/18/1 322/19/1 323/15/1 324/14/1
f 325/16/1 326/13/1 327/1/1 328/7/1
f 329/13/1 330/14/1 331/2/1 332/1/1
f 333/14/1 334/15/1 335/5/1 336/2/1
f 337/20/1 338/17/1 339/13/1 340/16/1
f 341/17/1 342/18/1 343/14/1 344/13/1
f 345/20/1 346/17/1 347/13/1 348/16/1
f 349/17/1 350/18/1 351/14/1 352/13/1
f 353/18/1 354/19/1 355/15/1 356/14/1
f 357/8/1 358/4/1 359/9/1 360/10/1
f 361/4/1 362/3/1 363/11/1 364/9/1
f 365/3/1 366/6/1 367/12/1 368/11/1
f 369/20/1 370/17/1 371/13/1 372/16/1
f 373/17/1 374/18/1 375/14/1 376/13/1
f 377/18/1 378/19/1 379/15/1 380/14/1
f 381/7/1 382/1/1 383/4/1 384/8/1
f 385/1/1 386/2/1 387/3/1 388/4/1
f 389/2/1 390/5/1 391/6/1 392/3/1
f 393/8/1 394/4/1 395/9/1 396/10/1
f 397/4/1 398/3/1 399/11/1 400/9/1
f 401/3/1 402/6/1 403/12/1 404/11/1
f 405/16/1 406/13/1 407/1/1 408/7/1
f 409/13/1 410/14/1 411/2/1 412/1/1
f 413/14/1 414/15/1 415/5/1 416/2/1
f 417/7/1 418/1/1 419/4/1 420/8/1
f 421/1/1 422/2/1 423/3/1 424/4/1
f 425/2/1 426/5/1 427/6/1 428/3/1
f 429/20/1 430/17/1 431/13/1 432/16/1
f 433/17/1 434/18/1 435/14/1 436/13/1
f 437/18/1 438/19/1 439/15/1 440/14/1
f 441/16/1 442/13/1 443/1/1 444/7/1
f 445/13/1 446/14/1 447/2/1 448/1/1
f 449/14/1 450/15/1 451/5/1 452/2/1
f 453/20/1 454/17/1 455/13/1 456/16/1
f 457/17/1 458/18/1 459/14/1 460/13/1
f 461/18/1 462/19/1 463/15/1 464/14/1

